<svg width="412" height="1024" viewBox="0 0 412 1024" fill="none" xmlns="http://www.w3.org/2000/svg">
<g clip-path="url(#clip0)">
<path d="M-419.153 500.851L-319.75 558.289L-254.92 648.573L-95.5005 500.851L44.7115 607.516L202.21 580.829L824.872 1006.61H-419.153V500.851Z" fill="#484AF0" fill-opacity="0.5"/>
<path d="M-419.153 500.851L-319.75 558.289L-254.92 648.573L-95.5005 500.851L44.7115 607.516L202.21 580.829L824.872 1006.61H-419.153V500.851Z" fill="url(#paint0_linear)" fill-opacity="0.5"/>
<path d="M-419.153 1010.7L418.19 551.255L569.267 673.432L720.344 606.354L824.872 530.813V1010.7H-419.153Z" fill="#484AF0" fill-opacity="0.25"/>
<path d="M-419.153 1010.7L418.19 551.255L569.267 673.432L720.344 606.354L824.872 530.813V1010.7H-419.153Z" fill="url(#paint1_linear)" fill-opacity="0.25"/>
<path d="M-425.261 1024L-425.261 859.006L-87.7255 727.187L130.79 651.539L372.807 802.078L484.209 748.219L647.469 837.984L818.764 936.91V1024H-425.261Z" fill="#484AF0" fill-opacity="0.75"/>
<path d="M-425.261 1024L-425.261 859.006L-87.7255 727.187L130.79 651.539L372.807 802.078L484.209 748.219L647.469 837.984L818.764 936.91V1024H-425.261Z" fill="url(#paint2_linear)" fill-opacity="0.75"/>
<g clip-path="url(#clip1)">
<path d="M384.174 846.655C384.17 837.394 382.169 828.251 378.317 819.887C374.466 811.522 368.86 804.147 361.905 798.296C354.951 792.444 346.822 788.262 338.109 786.053C329.395 783.844 320.314 783.664 311.524 785.524C302.735 787.385 294.456 791.24 287.288 796.811C280.121 802.382 274.243 809.529 270.082 817.733C265.921 825.938 263.581 834.995 263.23 844.249C262.879 853.502 264.528 862.721 268.055 871.235C267.996 871.168 267.935 871.102 267.876 871.033C270.563 877.497 274.288 883.446 278.894 888.63C278.908 888.646 278.922 888.661 278.936 888.677C279.308 889.095 279.681 889.51 280.064 889.918C285.592 895.869 292.211 900.627 299.535 903.917C306.86 907.206 314.745 908.961 322.732 909.079L320.688 1023.67H327.003L325.725 948.04L334.86 943.076L333.467 940.344L325.666 944.583L325.066 909.074C340.866 908.7 355.897 901.96 366.943 890.294C377.989 878.629 384.174 862.966 384.174 846.655Z" fill="#9E9FF4"/>
<path d="M138.383 821.984C138.377 811.446 136.1 801.04 131.717 791.522C127.334 782.004 120.955 773.611 113.041 766.952C105.127 760.293 95.8767 755.534 85.9607 753.021C76.0446 750.507 65.711 750.301 55.7084 752.419C45.7059 754.536 36.285 758.923 28.1282 765.263C19.9715 771.602 13.2832 779.735 8.54803 789.072C3.81282 798.408 1.14926 808.715 0.750321 819.246C0.351387 829.776 2.22707 840.266 6.24148 849.956C6.17416 849.879 6.10461 849.804 6.03762 849.726C9.09539 857.082 13.3344 863.852 18.5759 869.751C18.5915 869.769 18.6076 869.786 18.6233 869.804C19.0462 870.279 19.4715 870.753 19.9067 871.216C26.1977 877.989 33.7295 883.403 42.0648 887.147C50.4001 890.89 59.3729 892.887 68.4621 893.022L66.1359 1023.43H73.3227L71.8682 937.358L82.2643 931.709L80.6784 928.6L71.8017 933.424L71.1188 893.015C89.0986 892.59 106.203 884.919 118.774 871.645C131.344 858.37 138.382 840.546 138.383 821.984Z" fill="#9E9FF4"/>
<path d="M129.115 852.525C178.948 852.525 219.345 810.831 219.345 759.398C219.345 707.966 178.948 666.271 129.115 666.271C79.2815 666.271 38.8838 707.966 38.8838 759.398C38.8838 810.831 79.2815 852.525 129.115 852.525Z" fill="#484AF0"/>
<path opacity="0.2" d="M62.4911 697.197C54.0746 717.516 52.9328 740.263 59.2698 761.371C65.6069 782.48 79.0097 800.575 97.0834 812.423C115.157 824.271 136.724 829.1 157.93 826.048C179.136 822.995 198.599 812.26 212.842 795.759C207.701 808.174 200.006 819.286 190.29 828.326C180.574 837.367 169.071 844.119 156.576 848.115C144.081 852.111 130.893 853.256 117.927 851.47C104.961 849.683 92.5262 845.009 81.4842 837.77C70.4421 830.532 61.0569 820.902 53.9788 809.548C46.9007 798.194 42.2989 785.388 40.4922 772.017C38.6856 758.645 39.7173 745.028 43.5158 732.109C47.3144 719.189 53.789 707.277 62.4911 697.197Z" fill="black"/>
<path d="M129.363 759.398H129.611L134.073 1023.43H124.653L129.363 759.398Z" fill="#3F3D56"/>
<path d="M145.792 903.214L143.713 899.139L128.798 907.243L130.877 911.318L145.792 903.214Z" fill="#3F3D56"/>
<path d="M267.125 1020.96C267.125 1020.96 267.451 1013.92 274.125 1014.74Z" fill="#3F3D56"/>
<path d="M265.24 1014.26C267.085 1014.26 268.58 1012.71 268.58 1010.81C268.58 1008.91 267.085 1007.36 265.24 1007.36C263.395 1007.36 261.9 1008.91 261.9 1010.81C261.9 1012.71 263.395 1014.26 265.24 1014.26Z" fill="#6C63FF"/>
<path d="M265.639 1016.62H264.696V1023.43H265.639V1016.62Z" fill="#3F3D56"/>
<path d="M35.656 1019.99C35.656 1019.99 35.9816 1012.94 42.6553 1013.76Z" fill="#3F3D56"/>
<path d="M33.7701 1013.29C35.6148 1013.29 37.1103 1011.74 37.1103 1009.84C37.1103 1007.93 35.6148 1006.39 33.7701 1006.39C31.9254 1006.39 30.4299 1007.93 30.4299 1009.84C30.4299 1011.74 31.9254 1013.29 33.7701 1013.29Z" fill="#6C63FF"/>
<path d="M34.1697 1015.64H33.2268V1022.45H34.1697V1015.64Z" fill="#3F3D56"/>
<path d="M90.3413 1020.47C90.3413 1020.47 90.6669 1013.43 97.3406 1014.25Z" fill="#3F3D56"/>
<path d="M88.4554 1013.77C90.3001 1013.77 91.7956 1012.23 91.7956 1010.32C91.7956 1008.42 90.3001 1006.88 88.4554 1006.88C86.6107 1006.88 85.1152 1008.42 85.1152 1010.32C85.1152 1012.23 86.6107 1013.77 88.4554 1013.77Z" fill="#6C63FF"/>
<path d="M88.855 1016.13H87.9121V1022.94H88.855V1016.13Z" fill="#3F3D56"/>
<path d="M188.652 991.936C188.652 991.936 193.899 1007.8 191.65 1013.6L198.397 1019.79L202.52 1014.37C202.52 1014.37 198.022 1009.73 198.397 1006.25C198.772 1002.77 199.147 990.388 199.147 990.388L188.652 991.936Z" fill="#FFB9B9"/>
<path d="M213.763 1022.88C213.456 1023.07 213.164 1023.24 212.895 1023.4H189.631C189.415 1023.28 189.242 1023.08 189.134 1022.85C189.026 1022.62 188.989 1022.36 189.027 1022.11C189.136 1021.53 189.414 1020.37 189.758 1019.02C190.573 1015.85 191.771 1011.69 192.03 1012.13C192.031 1012.13 192.031 1012.13 192.032 1012.13C192.033 1012.13 192.033 1012.13 192.034 1012.13C192.034 1012.13 192.034 1012.13 192.035 1012.13C192.035 1012.13 192.035 1012.13 192.035 1012.13C192.398 1012.83 193.147 1015.92 195.024 1015.54C196.9 1015.15 199.898 1014.37 199.898 1014.37C199.898 1014.37 198.828 1011.89 199.851 1010.89C200.071 1010.68 200.35 1010.54 200.648 1010.5C202.897 1010.12 202.897 1013.6 202.897 1013.6L211.142 1018.24C211.853 1018.44 212.546 1018.71 213.216 1019.02C214.89 1019.83 216.544 1021.21 213.763 1022.88Z" fill="#2F2E41"/>
<path d="M173.659 986.133L163.913 998.126L161.289 1004.32L164.663 1007.02L167.661 1005.86C167.661 1005.86 170.285 998.899 172.909 997.739C175.533 996.578 181.905 988.841 181.905 988.841L173.659 986.133Z" fill="#FFB9B9"/>
<path d="M194.087 976.93L189.116 986.439L185.555 993.247C184.416 993.948 182.898 993.936 181.264 993.522C180.502 993.321 179.756 993.064 179.03 992.752C174.569 990.868 170.045 987.127 170.045 987.127L178.606 976.086L181.402 972.485L182.066 971.626L185.263 973.038L190.904 975.525L194.087 976.93Z" fill="#2F2E41"/>
<path d="M171.905 894.819L167.935 911.627L172.021 933.191C172.021 933.191 172.122 942.006 175.867 941.337C179.612 940.669 175.687 931.778 175.687 931.778L173.855 914.097L179.712 896.628C179.931 895.914 179.902 895.143 179.628 894.449C179.354 893.755 178.854 893.181 178.213 892.828V892.828C175.894 891.366 172.599 892.406 171.905 894.819Z" fill="#FFB9B9"/>
<path d="M185.84 880.328L182.467 891.16L176.095 887.678C176.095 887.678 178.719 879.941 178.719 878.78C178.719 877.62 185.84 880.328 185.84 880.328Z" fill="#FFB9B9"/>
<path d="M183.217 884.583C187.564 884.583 191.088 880.946 191.088 876.459C191.088 871.972 187.564 868.335 183.217 868.335C178.869 868.335 175.345 871.972 175.345 876.459C175.345 880.946 178.869 884.583 183.217 884.583Z" fill="#FFB9B9"/>
<path d="M185.278 893.674L183.779 892.127L183.404 890.192C183.404 890.192 178.531 883.616 174.408 885.937C173.12 886.662 172.161 888.332 171.451 890.285C169.644 895.39 169.812 901.018 171.922 905.998L178.531 921.915L193.524 920.367L190.901 910.309C190.901 910.309 193.524 904.119 188.652 899.864L185.278 893.674Z" fill="#6C63FF"/>
<path opacity="0.3" d="M194.087 976.93L189.116 986.439L185.556 993.247C184.416 993.948 182.898 993.936 181.264 993.522C180.979 991.565 182.681 981.22 181.342 972.787L181.402 972.485L182.066 971.626L185.263 973.038L190.904 975.525L194.087 976.93Z" fill="black"/>
<path d="M194.087 919.4C194.087 919.4 184.341 913.211 177.594 920.948L177.969 923.269C177.969 923.269 172.347 929.846 175.72 943.772C179.093 957.699 184.341 994.064 184.341 994.064C184.341 994.064 196.71 994.837 202.333 990.582C202.333 990.582 200.459 942.612 194.087 937.97V919.4Z" fill="#2F2E41"/>
<path d="M173.765 897.854L184.341 911.276L203.457 920.948C203.457 920.948 210.323 926.192 212.07 922.709C213.817 919.225 204.582 917.079 204.582 917.079L189.826 907.9L179.88 892.527C179.461 891.915 178.848 891.474 178.147 891.28C177.446 891.085 176.7 891.15 176.041 891.463C173.511 892.487 172.322 895.825 173.765 897.854Z" fill="#FFB9B9"/>
<path d="M166.758 1005.01C166.758 1005.01 169.056 1002.03 170.428 1003.91C171.801 1005.79 168.81 1007.4 168.81 1007.4L168.636 1017.09C168.636 1017.09 170.268 1024.5 165.861 1021.64C161.455 1018.78 161.281 1018.43 160.415 1016.72C159.548 1015 157.757 1008.11 156.211 1005.89C154.665 1003.67 153.249 999.196 155.084 998.645C156.919 998.093 165.473 996.129 165.047 996.783C164.62 997.437 162.309 999.555 163.508 1001.09C164.707 1002.63 166.758 1005.01 166.758 1005.01Z" fill="#2F2E41"/>
<path d="M187.339 869.525C187.339 869.515 187.34 869.506 187.34 869.496C187.34 867.277 186.702 865.108 185.508 863.263C184.313 861.418 182.616 859.98 180.63 859.131C178.643 858.282 176.458 858.06 174.349 858.492C172.241 858.925 170.304 859.994 168.784 861.563C167.263 863.132 166.228 865.131 165.809 867.307C165.389 869.483 165.605 871.739 166.427 873.789C167.25 875.839 168.643 877.591 170.431 878.824C172.218 880.057 174.32 880.715 176.47 880.715C176.722 880.715 177.721 882.666 177.969 882.649C177.984 876.727 181.696 869.923 187.339 869.525Z" fill="#2F2E41"/>
<path d="M164.85 868.335C168.783 868.335 171.972 865.044 171.972 860.985C171.972 856.926 168.783 853.635 164.85 853.635C160.917 853.635 157.729 856.926 157.729 860.985C157.729 865.044 160.917 868.335 164.85 868.335Z" fill="#2F2E41"/>
<path d="M164.523 849.851C166.24 849.839 167.902 850.469 169.203 851.623C170.505 852.778 171.358 854.379 171.606 856.132C171.853 857.885 171.478 859.671 170.55 861.16C169.622 862.65 168.203 863.743 166.555 864.238C167.576 864.237 168.584 864.008 169.511 863.569C170.438 863.13 171.263 862.491 171.93 861.693C172.597 860.896 173.09 859.961 173.376 858.95C173.661 857.939 173.733 856.876 173.586 855.834C173.439 854.792 173.076 853.795 172.523 852.91C171.969 852.025 171.238 851.274 170.379 850.706C169.519 850.139 168.552 849.768 167.541 849.621C166.531 849.473 165.502 849.552 164.523 849.851V849.851Z" fill="#2F2E41"/>
<path d="M181.343 867.175H185.091C186.88 867.175 188.596 867.908 189.862 869.214C191.127 870.52 191.838 872.291 191.838 874.138V874.138H181.343V867.175Z" fill="#2F2E41"/>
<path d="M358.523 1023.51C358.523 1023.51 358.849 1016.47 365.522 1017.29Z" fill="#3F3D56"/>
<path d="M295.824 1023.51C295.824 1023.51 296.149 1016.47 302.823 1017.29Z" fill="#3F3D56"/>
<path d="M67.1826 1023.51C67.1826 1023.51 67.5082 1016.47 74.1819 1017.29Z" fill="#3F3D56"/>
<path d="M386.809 1023.51C386.809 1023.51 387.134 1016.47 393.808 1017.29Z" fill="#3F3D56"/>
<path d="M373.609 1023.51C373.609 1023.51 373.934 1016.47 380.608 1017.29Z" fill="#3F3D56"/>
<path d="M346.38 1023.51C346.38 1023.51 346.054 1016.47 339.38 1017.29Z" fill="#3F3D56"/>
<path d="M237.952 1023.51C237.952 1023.51 237.626 1016.47 230.953 1017.29Z" fill="#3F3D56"/>
<path d="M147.91 1023.51C147.91 1023.51 147.584 1016.47 140.911 1017.29Z" fill="#3F3D56"/>
<path d="M52.2105 1023.51C52.2105 1023.51 51.8849 1016.47 45.2112 1017.29Z" fill="#3F3D56"/>
<path d="M415.208 1023.51C415.208 1023.51 414.882 1016.47 408.208 1017.29Z" fill="#3F3D56"/>
<path d="M374.665 1024C374.665 1024 374.34 1016.96 367.666 1017.78Z" fill="#3F3D56"/>
<path d="M465.528 1022.59H0.528076V1023.67H465.528V1022.59Z" fill="#3F3D56"/>
</g>
<path d="M127.179 507.403L133.879 501.873C128.674 501.28 126.535 504.21 125.66 506.529C121.594 504.786 117.167 507.07 117.167 507.07L130.573 512.093C129.896 510.228 128.719 508.602 127.179 507.403Z" fill="#3F3D56"/>
<path d="M229.073 563.741L235.773 558.211C230.568 557.618 228.429 560.548 227.554 562.867C223.487 561.124 219.061 563.408 219.061 563.408L232.466 568.431C231.79 566.566 230.613 564.94 229.073 563.741V563.741Z" fill="#3F3D56"/>
<path d="M213.562 483.521L220.262 477.991C215.057 477.398 212.918 480.328 212.043 482.647C207.976 480.904 203.55 483.188 203.55 483.188L216.955 488.211C216.279 486.347 215.102 484.72 213.562 483.521V483.521Z" fill="#3F3D56"/>
<path d="M320.5 546.087C338.749 546.087 353.542 530.826 353.542 512C353.542 493.174 338.749 477.913 320.5 477.913C302.252 477.913 287.459 493.174 287.459 512C287.459 530.826 302.252 546.087 320.5 546.087Z" fill="#FF6584"/>
<path d="M320.5 546.087C338.749 546.087 353.542 530.826 353.542 512C353.542 493.174 338.749 477.913 320.5 477.913C302.252 477.913 287.459 493.174 287.459 512C287.459 530.826 302.252 546.087 320.5 546.087Z" fill="url(#paint3_radial)"/>
</g>
<defs>
<linearGradient id="paint0_linear" x1="202.859" y1="500.851" x2="202.859" y2="1006.61" gradientUnits="userSpaceOnUse">
<stop stop-color="#FF4057"/>
<stop offset="1" stop-color="white" stop-opacity="0"/>
</linearGradient>
<linearGradient id="paint1_linear" x1="202.859" y1="530.813" x2="202.859" y2="1010.7" gradientUnits="userSpaceOnUse">
<stop stop-color="#FF4057"/>
<stop offset="1" stop-color="white" stop-opacity="0"/>
</linearGradient>
<linearGradient id="paint2_linear" x1="196.752" y1="514.147" x2="196.752" y2="1024" gradientUnits="userSpaceOnUse">
<stop stop-color="#FF4057"/>
<stop offset="1" stop-color="white" stop-opacity="0"/>
</linearGradient>
<radialGradient id="paint3_radial" cx="0" cy="0" r="1" gradientUnits="userSpaceOnUse" gradientTransform="translate(296.909 535.248) rotate(-45.3534) scale(80.5886 297.332)">
<stop stop-color="#FFBB00"/>
<stop offset="1" stop-color="white" stop-opacity="0"/>
</radialGradient>
<clipPath id="clip0">
<rect width="411" height="1024" fill="white" transform="translate(0.528076)"/>
</clipPath>
<clipPath id="clip1">
<rect width="465" height="366" fill="white" transform="translate(0.528076 658)"/>
</clipPath>
</defs>
</svg>
