<svg width="768" height="1024" viewBox="0 0 768 1024" fill="none" xmlns="http://www.w3.org/2000/svg">
<g clip-path="url(#clip0)">
<path d="M-332.465 512L-217.403 569.438L-142.359 659.722L42.1736 512L204.474 618.665L386.783 591.978L1107.53 1017.76H-332.465V512Z" fill="#484AF0" fill-opacity="0.5"/>
<path d="M-332.465 512L-217.403 569.438L-142.359 659.722L42.1736 512L204.474 618.665L386.783 591.978L1107.53 1017.76H-332.465V512Z" fill="url(#paint0_linear)" fill-opacity="0.5"/>
<path d="M-332.465 1021.85L636.787 562.404L811.663 684.581L986.54 617.503L1107.53 541.962V1021.85H-332.465Z" fill="#484AF0" fill-opacity="0.25"/>
<path d="M-332.465 1021.85L636.787 562.404L811.663 684.581L986.54 617.503L1107.53 541.962V1021.85H-332.465Z" fill="url(#paint1_linear)" fill-opacity="0.25"/>
<path d="M-339.535 1035.15L-339.535 870.155L51.1736 738.336L304.112 662.688L584.255 813.227L713.206 759.368L902.185 849.133L1100.47 948.059V1035.15H-339.535Z" fill="#484AF0" fill-opacity="0.75"/>
<path d="M-339.535 1035.15L-339.535 870.155L51.1736 738.336L304.112 662.688L584.255 813.227L713.206 759.368L902.185 849.133L1100.47 948.059V1035.15H-339.535Z" fill="url(#paint2_linear)" fill-opacity="0.75"/>
<g clip-path="url(#clip1)">
<path d="M743.972 802.837C743.966 791.422 741.321 780.152 736.229 769.843C731.136 759.533 723.724 750.443 714.53 743.23C705.335 736.018 694.589 730.863 683.068 728.141C671.547 725.418 659.542 725.195 647.921 727.489C636.3 729.782 625.354 734.534 615.878 741.4C606.401 748.267 598.631 757.076 593.129 767.188C587.628 777.301 584.533 788.465 584.07 799.871C583.606 811.277 585.786 822.639 590.45 833.134C590.371 833.05 590.291 832.969 590.213 832.885C593.765 840.852 598.69 848.185 604.78 854.574C604.798 854.594 604.817 854.612 604.835 854.632C605.326 855.147 605.82 855.659 606.326 856.162C613.635 863.497 622.385 869.362 632.069 873.416C641.754 877.471 652.178 879.634 662.738 879.78L660.035 1021.03H668.385L666.695 927.802L678.774 921.683L676.931 918.316L666.618 923.54L665.825 879.773C686.714 879.312 706.586 871.004 721.191 856.626C735.795 842.248 743.972 822.941 743.972 802.837Z" fill="#484AF0"/>
<path d="M506.583 765.328C506.576 751.951 503.476 738.743 497.508 726.661C491.541 714.58 482.855 703.927 472.079 695.474C461.304 687.021 448.71 680.981 435.209 677.79C421.708 674.599 407.638 674.338 394.019 677.026C380.4 679.714 367.573 685.283 356.468 693.33C345.362 701.376 336.256 711.699 329.809 723.551C323.361 735.402 319.735 748.485 319.192 761.852C318.649 775.218 321.202 788.534 326.668 800.833C326.576 800.735 326.482 800.64 326.391 800.542C330.554 809.878 336.325 818.472 343.462 825.959C343.483 825.982 343.505 826.004 343.526 826.027C344.102 826.63 344.681 827.231 345.274 827.82C353.839 836.416 364.094 843.289 375.443 848.041C386.792 852.792 399.009 855.327 411.384 855.498L408.217 1021.03H418.002L416.021 911.776L430.176 904.605L428.017 900.659L415.931 906.781L415.001 855.49C439.481 854.95 462.77 845.213 479.885 828.364C497 811.514 506.583 788.888 506.583 765.328Z" fill="#9E9FF4"/>
<path d="M237.357 730.046C237.348 714.824 233.821 699.793 227.03 686.045C220.239 672.296 210.354 660.173 198.092 650.554C185.83 640.935 171.498 634.061 156.134 630.43C140.77 626.8 124.759 626.503 109.261 629.561C93.7634 632.62 79.1665 638.957 66.5285 648.114C53.8904 657.271 43.5276 669.018 36.1908 682.505C28.8541 695.992 24.7271 710.88 24.109 726.091C23.4909 741.302 26.3971 756.454 32.6171 770.451C32.5127 770.34 32.405 770.231 32.3012 770.119C37.0389 780.744 43.6068 790.523 51.728 799.044C51.7522 799.07 51.7771 799.095 51.8014 799.12C52.4567 799.808 53.1157 800.491 53.79 801.161C63.5373 810.943 75.2071 818.765 88.1218 824.172C101.037 829.579 114.939 832.464 129.022 832.658L125.418 1021.03H136.553L134.299 896.701L150.407 888.541L147.95 884.05L134.196 891.018L133.138 832.649C160.996 832.034 187.498 820.955 206.975 801.78C226.452 782.605 237.357 756.858 237.357 730.046Z" fill="#9E9FF4"/>
<path d="M222.996 774.162C300.208 774.162 362.8 713.935 362.8 639.643C362.8 565.35 300.208 505.124 222.996 505.124C145.784 505.124 83.1921 565.35 83.1921 639.643C83.1921 713.935 145.784 774.162 222.996 774.162Z" fill="#484AF0"/>
<path opacity="0.2" d="M119.769 549.795C106.729 579.146 104.96 612.002 114.778 642.493C124.597 672.983 145.364 699.121 173.367 716.236C201.37 733.35 234.786 740.326 267.643 735.916C300.499 731.507 330.656 716 352.724 692.166C344.758 710.098 332.835 726.149 317.782 739.208C302.728 752.266 284.904 762.02 265.545 767.792C246.185 773.564 225.752 775.218 205.662 772.637C185.573 770.057 166.306 763.305 149.197 752.849C132.089 742.393 117.547 728.484 106.581 712.083C95.6137 695.683 88.4836 677.185 85.6844 657.87C82.8852 638.555 84.4837 618.885 90.3692 600.224C96.2547 581.562 106.286 564.355 119.769 549.795Z" fill="black"/>
<path d="M223.38 639.642H223.765L230.678 1021.03H216.083L223.38 639.642Z" fill="#3F3D56"/>
<path d="M248.836 847.38L245.615 841.494L222.505 853.201L225.726 859.087L248.836 847.38Z" fill="#3F3D56"/>
<path d="M436.831 1017.46C436.831 1017.46 437.335 1007.29 447.675 1008.47Z" fill="#3F3D56"/>
<path d="M433.909 1007.78C436.767 1007.78 439.084 1005.55 439.084 1002.8C439.084 1000.05 436.767 997.822 433.909 997.822C431.051 997.822 428.734 1000.05 428.734 1002.8C428.734 1005.55 431.051 1007.78 433.909 1007.78Z" fill="#6C63FF"/>
<path d="M434.528 1011.19H433.067V1021.03H434.528V1011.19Z" fill="#3F3D56"/>
<path d="M78.1909 1016.05C78.1909 1016.05 78.6953 1005.88 89.0357 1007.07Z" fill="#3F3D56"/>
<path d="M75.2693 1006.38C78.1275 1006.38 80.4445 1004.15 80.4445 1001.4C80.4445 998.646 78.1275 996.416 75.2693 996.416C72.411 996.416 70.094 998.646 70.094 1001.4C70.094 1004.15 72.411 1006.38 75.2693 1006.38Z" fill="#6C63FF"/>
<path d="M75.8879 1009.78H74.427V1019.62H75.8879V1009.78Z" fill="#3F3D56"/>
<path d="M162.92 1016.76C162.92 1016.76 163.425 1006.59 173.765 1007.77Z" fill="#3F3D56"/>
<path d="M159.999 1007.08C162.857 1007.08 165.174 1004.85 165.174 1002.1C165.174 999.348 162.857 997.119 159.999 997.119C157.141 997.119 154.823 999.348 154.823 1002.1C154.823 1004.85 157.141 1007.08 159.999 1007.08Z" fill="#6C63FF"/>
<path d="M160.618 1010.48H159.157V1020.32H160.618V1010.48Z" fill="#3F3D56"/>
<path d="M388.254 558.205L398.635 550.216C390.57 549.36 387.257 553.592 385.901 556.941C379.6 554.424 372.742 557.723 372.742 557.723L393.512 564.978C392.464 562.285 390.64 559.936 388.254 558.205Z" fill="#3F3D56"/>
<path d="M546.128 639.583L556.509 631.594C548.444 630.738 545.131 634.97 543.775 638.32C537.474 635.802 530.616 639.101 530.616 639.101L551.386 646.357C550.338 643.664 548.514 641.314 546.128 639.583V639.583Z" fill="#3F3D56"/>
<path d="M522.095 523.708L532.476 515.719C524.412 514.863 521.098 519.095 519.742 522.444C513.442 519.927 506.583 523.226 506.583 523.226L527.354 530.481C526.306 527.788 524.482 525.439 522.095 523.708V523.708Z" fill="#3F3D56"/>
<path d="M315.243 975.537C315.243 975.537 323.374 998.448 319.889 1006.83L330.343 1015.77L336.731 1007.95C336.731 1007.95 329.762 1001.24 330.343 996.213C330.923 991.184 331.504 973.302 331.504 973.302L315.243 975.537Z" fill="#FFB9B9"/>
<path d="M354.15 1020.24C353.676 1020.51 353.223 1020.76 352.806 1020.99H316.76C316.426 1020.81 316.158 1020.53 315.991 1020.2C315.824 1019.86 315.766 1019.49 315.825 1019.12C315.993 1018.29 316.424 1016.6 316.957 1014.67C318.221 1010.08 320.076 1004.07 320.478 1004.71C320.479 1004.71 320.48 1004.71 320.481 1004.71C320.482 1004.71 320.482 1004.71 320.483 1004.71C320.484 1004.71 320.484 1004.71 320.485 1004.71C320.485 1004.71 320.485 1004.71 320.485 1004.71C321.048 1005.71 322.209 1010.18 325.116 1009.63C328.023 1009.06 332.669 1007.95 332.669 1007.95C332.669 1007.95 331.011 1004.36 332.596 1002.91C332.936 1002.61 333.368 1002.41 333.83 1002.36C337.314 1001.8 337.314 1006.83 337.314 1006.83L350.089 1013.53C351.191 1013.83 352.265 1014.21 353.303 1014.67C355.896 1015.83 358.46 1017.83 354.15 1020.24Z" fill="#2F2E41"/>
<path d="M292.013 967.155L276.913 984.478L272.848 993.419L278.074 997.331L282.721 995.654C282.721 995.654 286.786 985.596 290.851 983.919C294.916 982.243 304.789 971.067 304.789 971.067L292.013 967.155Z" fill="#FFB9B9"/>
<path d="M323.664 953.861L315.963 967.597L310.446 977.432C308.68 978.443 306.328 978.426 303.796 977.828C302.616 977.538 301.459 977.166 300.335 976.716C293.424 973.995 286.414 968.591 286.414 968.591L299.679 952.643L304.011 947.44L305.039 946.2L309.993 948.24L318.733 951.833L323.664 953.861Z" fill="#2F2E41"/>
<path d="M289.295 835.254L283.144 859.534L289.476 890.682C289.476 890.682 289.632 903.415 295.434 902.449C301.237 901.483 295.156 888.641 295.156 888.641L292.317 863.101L301.392 837.868C301.732 836.836 301.685 835.722 301.261 834.72C300.837 833.717 300.062 832.889 299.07 832.379V832.379C295.477 830.267 290.371 831.77 289.295 835.254Z" fill="#FFB9B9"/>
<path d="M310.887 814.322L305.66 829.969L295.788 824.939C295.788 824.939 299.853 813.763 299.853 812.087C299.853 810.411 310.887 814.322 310.887 814.322Z" fill="#FFB9B9"/>
<path d="M306.822 820.469C313.557 820.469 319.018 815.215 319.018 808.734C319.018 802.253 313.557 796.999 306.822 796.999C300.086 796.999 294.626 802.253 294.626 808.734C294.626 815.215 300.086 820.469 306.822 820.469Z" fill="#FFB9B9"/>
<path d="M310.016 833.601L307.693 831.366L307.112 828.572C307.112 828.572 299.563 819.072 293.174 822.425C291.178 823.473 289.692 825.885 288.592 828.706C285.792 836.08 286.053 844.209 289.322 851.402L299.563 874.394L322.793 872.158L318.728 857.63C318.728 857.63 322.793 848.689 315.243 842.542L310.016 833.601Z" fill="#6C63FF"/>
<path opacity="0.3" d="M323.664 953.861L315.963 967.597L310.446 977.432C308.68 978.443 306.328 978.426 303.796 977.828C303.355 975.001 305.991 960.058 303.918 947.876L304.011 947.44L305.039 946.2L309.993 948.24L318.733 951.833L323.664 953.861Z" fill="black"/>
<path d="M323.664 870.761C323.664 870.761 308.564 861.821 298.111 872.997L298.691 876.35C298.691 876.35 289.98 885.849 295.207 905.966C300.434 926.083 308.564 978.611 308.564 978.611C308.564 978.611 327.729 979.728 336.441 973.581C336.441 973.581 333.537 904.29 323.664 897.584V870.761Z" fill="#2F2E41"/>
<path d="M292.178 839.638L308.564 859.026L338.183 872.997C338.183 872.997 348.821 880.572 351.527 875.54C354.234 870.508 339.925 867.409 339.925 867.409L317.062 854.15L301.652 831.944C301.003 831.06 300.053 830.422 298.967 830.142C297.88 829.861 296.726 829.955 295.704 830.407C291.784 831.885 289.942 836.708 292.178 839.638Z" fill="#FFB9B9"/>
<path d="M281.321 994.426C281.321 994.426 284.881 990.119 287.008 992.833C289.134 995.547 284.5 997.873 284.5 997.873L284.23 1011.87C284.23 1011.87 286.759 1022.58 279.931 1018.44C273.104 1014.31 272.835 1013.81 271.492 1011.33C270.149 1008.86 267.374 998.906 264.979 995.696C262.584 992.487 260.39 986.024 263.234 985.228C266.077 984.431 279.329 981.594 278.669 982.539C278.009 983.484 274.427 986.542 276.285 988.761C278.143 990.98 281.321 994.426 281.321 994.426Z" fill="#2F2E41"/>
<path d="M313.209 798.718C313.209 798.704 313.21 798.69 313.21 798.676C313.21 795.471 312.223 792.337 310.372 789.672C308.521 787.008 305.891 784.93 302.814 783.704C299.736 782.477 296.35 782.156 293.083 782.782C289.816 783.407 286.815 784.95 284.459 787.217C282.104 789.483 280.5 792.371 279.85 795.514C279.2 798.658 279.534 801.916 280.808 804.877C282.083 807.838 284.242 810.369 287.011 812.15C289.781 813.931 293.037 814.881 296.368 814.881C296.76 814.881 298.307 817.7 298.691 817.675C298.714 809.121 304.465 799.293 313.209 798.718Z" fill="#2F2E41"/>
<path d="M278.365 796.999C284.459 796.999 289.399 792.246 289.399 786.382C289.399 780.518 284.459 775.765 278.365 775.765C272.271 775.765 267.33 780.518 267.33 786.382C267.33 792.246 272.271 796.999 278.365 796.999Z" fill="#2F2E41"/>
<path d="M277.859 770.299C280.518 770.283 283.093 771.192 285.11 772.86C287.126 774.527 288.448 776.84 288.832 779.372C289.215 781.904 288.635 784.483 287.196 786.635C285.758 788.788 283.56 790.367 281.007 791.081C282.588 791.079 284.15 790.749 285.586 790.115C287.023 789.481 288.302 788.557 289.335 787.405C290.368 786.254 291.132 784.902 291.574 783.442C292.017 781.982 292.128 780.447 291.9 778.942C291.672 777.436 291.11 775.996 290.253 774.718C289.396 773.44 288.263 772.354 286.931 771.534C285.599 770.715 284.1 770.18 282.534 769.967C280.969 769.754 279.375 769.867 277.859 770.299V770.299Z" fill="#2F2E41"/>
<path d="M303.918 795.323H309.726C312.498 795.323 315.157 796.383 317.118 798.269C319.078 800.155 320.179 802.714 320.179 805.381V805.381H303.918V795.323Z" fill="#2F2E41"/>
<path d="M578.443 1021.15C578.443 1021.15 578.947 1010.98 589.287 1012.16Z" fill="#3F3D56"/>
<path d="M481.296 1021.15C481.296 1021.15 481.8 1010.98 492.14 1012.16Z" fill="#3F3D56"/>
<path d="M127.039 1021.15C127.039 1021.15 127.543 1010.98 137.883 1012.16Z" fill="#3F3D56"/>
<path d="M622.268 1021.15C622.268 1021.15 622.772 1010.98 633.113 1012.16Z" fill="#3F3D56"/>
<path d="M601.816 1021.15C601.816 1021.15 602.321 1010.98 612.661 1012.16Z" fill="#3F3D56"/>
<path d="M559.627 1021.15C559.627 1021.15 559.123 1010.98 548.782 1012.16Z" fill="#3F3D56"/>
<path d="M391.629 1021.15C391.629 1021.15 391.125 1010.98 380.784 1012.16Z" fill="#3F3D56"/>
<path d="M252.117 1021.15C252.117 1021.15 251.613 1010.98 241.273 1012.16Z" fill="#3F3D56"/>
<path d="M103.841 1021.15C103.841 1021.15 103.336 1010.98 92.9958 1012.16Z" fill="#3F3D56"/>
<path d="M666.27 1021.15C666.27 1021.15 665.765 1010.98 655.425 1012.16Z" fill="#3F3D56"/>
<path d="M603.453 1021.85C603.453 1021.85 602.948 1011.68 592.608 1012.87Z" fill="#3F3D56"/>
<path d="M744.236 1019.82H23.7637V1021.38H744.236V1019.82Z" fill="#3F3D56"/>
</g>
<path d="M633.113 493.176C660.727 493.176 683.113 470.79 683.113 443.176C683.113 415.562 660.727 393.176 633.113 393.176C605.499 393.176 583.113 415.562 583.113 443.176C583.113 470.79 605.499 493.176 633.113 493.176Z" fill="#FF6584"/>
<path d="M633.113 493.176C660.727 493.176 683.113 470.79 683.113 443.176C683.113 415.562 660.727 393.176 633.113 393.176C605.499 393.176 583.113 415.562 583.113 443.176C583.113 470.79 605.499 493.176 633.113 493.176Z" fill="url(#paint3_radial)"/>
</g>
<defs>
<linearGradient id="paint0_linear" x1="387.535" y1="512" x2="387.535" y2="1017.76" gradientUnits="userSpaceOnUse">
<stop stop-color="#FF4057"/>
<stop offset="1" stop-color="white" stop-opacity="0"/>
</linearGradient>
<linearGradient id="paint1_linear" x1="387.535" y1="541.962" x2="387.535" y2="1021.85" gradientUnits="userSpaceOnUse">
<stop stop-color="#FF4057"/>
<stop offset="1" stop-color="white" stop-opacity="0"/>
</linearGradient>
<linearGradient id="paint2_linear" x1="380.465" y1="525.296" x2="380.465" y2="1035.15" gradientUnits="userSpaceOnUse">
<stop stop-color="#FF4057"/>
<stop offset="1" stop-color="white" stop-opacity="0"/>
</linearGradient>
<radialGradient id="paint3_radial" cx="0" cy="0" r="1" gradientUnits="userSpaceOnUse" gradientTransform="translate(597.414 477.278) rotate(-44.4611) scale(120.073 442.965)">
<stop stop-color="#FFBB00"/>
<stop offset="1" stop-color="white" stop-opacity="0"/>
</radialGradient>
<clipPath id="clip0">
<rect width="768" height="1024" fill="white"/>
</clipPath>
<clipPath id="clip1">
<rect width="720.472" height="528.677" fill="white" transform="translate(23.7637 493.176)"/>
</clipPath>
</defs>
</svg>
