<svg width="1441" height="1027" viewBox="0 0 1441 1027" fill="none" xmlns="http://www.w3.org/2000/svg">
<g clip-path="url(#clip0)">
<path d="M0 1028.1L969.252 568.647L1144.13 690.824L1319 623.746L1440 548.205V1028.1H0Z" fill="#484AF0" fill-opacity="0.25"/>
<path d="M0 1028.1L969.252 568.647L1144.13 690.824L1319 623.746L1440 548.205V1028.1H0Z" fill="url(#paint0_linear)" fill-opacity="0.25"/>
<path d="M362.322 421.405H354.345V413.513H353.62V421.405H345.643V422.122H353.62V430.014H354.345V422.122H362.322V421.405Z" fill="#8AE9EF"/>
<path d="M115.284 386.926H107.307V379.034H106.583V386.926H98.6058V387.643H106.583V395.534H107.307V387.643H115.284V386.926Z" fill="#8AE9EF"/>
</g>
<path d="M261.463 517.885H253.486V509.993H252.761V517.885H244.785V518.602H252.761V526.493H253.486V518.602H261.463V517.885Z" fill="#8AE9EF"/>
<path d="M145.803 221.643H137.826V213.751H137.102V221.643H129.125V222.36H137.102V230.252H137.826V222.36H145.803V221.643Z" fill="#8AE9EF"/>
<path d="M-0.00012207 539.612L70.3381 624.908L190.106 665.965L374.639 518.243L536.939 624.908L719.248 598.221L1440 1024H-2.76566e-05L-0.00012207 539.612Z" fill="#484AF0" fill-opacity="0.65"/>
<path d="M-0.00012207 539.612L70.3381 624.908L190.106 665.965L374.639 518.243L536.939 624.908L719.248 598.221L1440 1024H-2.76566e-05L-0.00012207 539.612Z" fill="url(#paint1_linear)" fill-opacity="0.65"/>
<path d="M0.000112534 1021.55L7.61166e-05 856.557L390.709 724.737L643.647 649.09L923.79 799.628L1052.74 745.769L1278.34 885.99L1394.59 934.461L1440 948.847L1440 1021.55H0.000112534Z" fill="#484AF0" fill-opacity="0.9"/>
<path d="M0.000112534 1021.55L7.61166e-05 856.557L390.709 724.737L643.647 649.09L923.79 799.628L1052.74 745.769L1278.34 885.99L1394.59 934.461L1440 948.847L1440 1021.55H0.000112534Z" fill="url(#paint2_linear)" fill-opacity="0.9"/>
<g clip-path="url(#clip1)">
<path d="M957.261 770.542C957.253 757.166 954.153 743.958 948.186 731.876C942.218 719.795 933.532 709.141 922.757 700.689C911.982 692.236 899.387 686.196 885.886 683.005C872.385 679.814 858.315 679.553 844.697 682.241C831.078 684.929 818.251 690.498 807.145 698.545C796.039 706.591 786.933 716.914 780.486 728.766C774.039 740.617 770.412 753.7 769.869 767.067C769.326 780.433 771.88 793.749 777.346 806.048C777.254 805.95 777.159 805.855 777.068 805.757C781.231 815.093 787.003 823.687 794.139 831.174C794.161 831.197 794.182 831.219 794.204 831.242C794.78 831.845 795.359 832.446 795.951 833.035C804.517 841.631 814.772 848.504 826.12 853.256C837.469 858.007 849.686 860.542 862.061 860.713L858.894 1026.24H868.679L866.699 916.991L880.853 909.82L878.694 905.874L866.608 911.996L865.678 860.705C890.159 860.165 913.447 850.428 930.562 833.579C947.678 816.729 957.26 794.103 957.261 770.542Z" fill="#9E9FF4"/>
<path d="M573.357 729.744C573.349 714.521 569.821 699.491 563.03 685.742C556.239 671.993 546.354 659.87 534.092 650.252C521.83 640.633 507.498 633.759 492.134 630.128C476.77 626.497 460.759 626.2 445.261 629.258C429.763 632.317 415.167 638.654 402.529 647.811C389.891 656.968 379.528 668.716 372.191 682.202C364.854 695.689 360.727 710.577 360.109 725.788C359.491 740.999 362.397 756.152 368.617 770.149C368.513 770.037 368.405 769.928 368.301 769.816C373.039 780.441 379.607 790.22 387.728 798.741C387.752 798.767 387.777 798.792 387.802 798.818C388.457 799.505 389.116 800.189 389.79 800.858C399.537 810.641 411.207 818.462 424.122 823.869C437.037 829.276 450.939 832.161 465.022 832.356L461.418 1020.72H472.553L470.299 896.399L486.407 888.239L483.95 883.748L470.196 890.715L469.138 832.346C496.996 831.732 523.498 820.652 542.975 801.477C562.452 782.303 573.357 756.555 573.357 729.744Z" fill="#9E9FF4"/>
<path d="M558.996 773.859C636.208 773.859 698.8 713.633 698.8 639.34C698.8 565.047 636.208 504.821 558.996 504.821C481.785 504.821 419.192 565.047 419.192 639.34C419.192 713.633 481.785 773.859 558.996 773.859Z" fill="#484AF0"/>
<path opacity="0.2" d="M455.77 549.492C442.729 578.843 440.96 611.699 450.779 642.19C460.597 672.681 481.364 698.818 509.367 715.933C537.371 733.047 570.786 740.023 603.643 735.614C636.5 731.204 666.656 715.697 688.724 691.863C680.758 709.795 668.835 725.847 653.782 738.905C638.728 751.964 620.904 761.717 601.545 767.489C582.185 773.262 561.752 774.915 541.663 772.335C521.573 769.755 502.306 763.003 485.198 752.547C468.089 742.091 453.548 728.181 442.581 711.781C431.614 695.38 424.484 676.882 421.685 657.567C418.885 638.252 420.484 618.583 426.369 599.921C432.255 581.26 442.287 564.053 455.77 549.492Z" fill="black"/>
<path d="M559.38 639.34H559.765L566.678 1020.72H552.083L559.38 639.34Z" fill="#3F3D56"/>
<path d="M584.836 847.078L581.615 841.191L558.505 852.898L561.726 858.785L584.836 847.078Z" fill="#3F3D56"/>
<path d="M772.831 1017.16C772.831 1017.16 773.335 1006.99 783.676 1008.17Z" fill="#3F3D56"/>
<path d="M769.909 1007.48C772.767 1007.48 775.084 1005.25 775.084 1002.5C775.084 999.749 772.767 997.519 769.909 997.519C767.051 997.519 764.734 999.749 764.734 1002.5C764.734 1005.25 767.051 1007.48 769.909 1007.48Z" fill="#6C63FF"/>
<path d="M770.528 1010.88H769.067V1020.72H770.528V1010.88Z" fill="#3F3D56"/>
<path d="M414.191 1015.75C414.191 1015.75 414.695 1005.58 425.036 1006.76Z" fill="#3F3D56"/>
<path d="M411.269 1006.07C414.127 1006.07 416.445 1003.84 416.445 1001.09C416.445 998.343 414.127 996.114 411.269 996.114C408.411 996.114 406.094 998.343 406.094 1001.09C406.094 1003.84 408.411 1006.07 411.269 1006.07Z" fill="#6C63FF"/>
<path d="M411.888 1009.48H410.427V1019.32H411.888V1009.48Z" fill="#3F3D56"/>
<path d="M498.921 1016.45C498.921 1016.45 499.425 1006.28 509.765 1007.47Z" fill="#3F3D56"/>
<path d="M495.999 1006.78C498.857 1006.78 501.174 1004.55 501.174 1001.8C501.174 999.046 498.857 996.816 495.999 996.816C493.141 996.816 490.824 999.046 490.824 1001.8C490.824 1004.55 493.141 1006.78 495.999 1006.78Z" fill="#6C63FF"/>
<path d="M496.618 1010.18H495.157V1020.02H496.618V1010.18Z" fill="#3F3D56"/>
<path d="M724.254 557.902L734.635 549.913C726.571 549.057 723.257 553.289 721.901 556.639C715.601 554.121 708.742 557.42 708.742 557.42L729.512 564.676C728.465 561.983 726.641 559.633 724.254 557.902Z" fill="#3F3D56"/>
<path d="M858.096 523.405L868.477 515.416C860.412 514.56 857.099 518.792 855.742 522.142C849.442 519.624 842.583 522.923 842.583 522.923L863.354 530.179C862.306 527.486 860.482 525.136 858.096 523.405V523.405Z" fill="#3F3D56"/>
<path d="M712.796 976.097C712.796 976.097 720.927 999.008 717.443 1007.39L727.896 1016.33L734.284 1008.51C734.284 1008.51 727.315 1001.8 727.896 996.773C728.477 991.744 729.058 973.862 729.058 973.862L712.796 976.097Z" fill="#FFB9B9"/>
<path d="M751.704 1020.8C751.229 1021.07 750.776 1021.32 750.36 1021.55H714.313C713.979 1021.37 713.711 1021.09 713.544 1020.76C713.377 1020.42 713.319 1020.05 713.378 1019.68C713.546 1018.85 713.977 1017.16 714.511 1015.22C715.774 1010.64 717.629 1004.63 718.031 1005.27C718.032 1005.27 718.033 1005.27 718.034 1005.27C718.035 1005.27 718.036 1005.27 718.036 1005.27C718.037 1005.27 718.038 1005.27 718.038 1005.27C718.038 1005.27 718.039 1005.27 718.039 1005.27C718.601 1006.27 719.762 1010.74 722.669 1010.19C725.577 1009.62 730.222 1008.51 730.222 1008.51C730.222 1008.51 728.564 1004.92 730.149 1003.47C730.49 1003.17 730.922 1002.97 731.384 1002.92C734.868 1002.36 734.868 1007.39 734.868 1007.39L747.643 1014.09C748.744 1014.39 749.819 1014.76 750.857 1015.22C753.45 1016.39 756.013 1018.39 751.704 1020.8Z" fill="#2F2E41"/>
<path d="M689.566 967.715L674.466 985.038L670.401 993.979L675.628 997.89L680.274 996.214C680.274 996.214 684.339 986.155 688.405 984.479C692.47 982.803 702.343 971.626 702.343 971.626L689.566 967.715Z" fill="#FFB9B9"/>
<path d="M721.217 954.421L713.516 968.156L707.999 977.991C706.234 979.003 703.882 978.986 701.35 978.388C700.17 978.098 699.013 977.726 697.888 977.276C690.977 974.555 683.968 969.151 683.968 969.151L697.232 953.203L701.565 948L702.592 946.76L707.546 948.799L716.287 952.392L721.217 954.421Z" fill="#2F2E41"/>
<path d="M686.849 835.814L680.697 860.093L687.029 891.242C687.029 891.242 687.185 903.975 692.988 903.009C698.79 902.043 692.709 889.201 692.709 889.201L689.871 863.66L698.945 838.428C699.285 837.396 699.239 836.282 698.815 835.279C698.391 834.277 697.615 833.449 696.623 832.939V832.939C693.03 830.827 687.924 832.329 686.849 835.814Z" fill="#FFB9B9"/>
<path d="M708.441 814.882L703.214 830.528L693.341 825.499C693.341 825.499 697.406 814.323 697.406 812.647C697.406 810.97 708.441 814.882 708.441 814.882Z" fill="#FFB9B9"/>
<path d="M704.375 821.029C711.111 821.029 716.571 815.775 716.571 809.294C716.571 802.813 711.111 797.559 704.375 797.559C697.64 797.559 692.179 802.813 692.179 809.294C692.179 815.775 697.64 821.029 704.375 821.029Z" fill="#FFB9B9"/>
<path d="M707.57 834.161L705.247 831.925L704.666 829.131C704.666 829.131 697.116 819.632 690.728 822.984C688.731 824.032 687.245 826.444 686.146 829.266C683.345 836.639 683.607 844.768 686.875 851.962L697.116 874.953L720.346 872.718L716.281 858.189C716.281 858.189 720.346 849.248 712.796 843.101L707.57 834.161Z" fill="#6C63FF"/>
<path opacity="0.3" d="M721.217 954.421L713.517 968.156L707.999 977.991C706.234 979.003 703.882 978.986 701.35 978.388C700.908 975.561 703.545 960.618 701.472 948.436L701.565 948L702.592 946.76L707.546 948.799L716.287 952.392L721.217 954.421Z" fill="black"/>
<path d="M721.217 871.321C721.217 871.321 706.118 862.38 695.664 873.556L696.245 876.909C696.245 876.909 687.533 886.409 692.76 906.526C697.987 926.643 706.118 979.17 706.118 979.17C706.118 979.17 725.283 980.288 733.994 974.141C733.994 974.141 731.09 904.849 721.217 898.144V871.321Z" fill="#2F2E41"/>
<path d="M689.731 840.198L706.118 859.586L735.736 873.556C735.736 873.556 746.374 881.132 749.081 876.1C751.787 871.067 737.479 867.968 737.479 867.968L714.615 854.709L699.206 832.504C698.557 831.62 697.607 830.982 696.52 830.701C695.434 830.421 694.279 830.514 693.257 830.967C689.337 832.445 687.496 837.267 689.731 840.198Z" fill="#FFB9B9"/>
<path d="M678.875 994.986C678.875 994.986 682.435 990.679 684.561 993.393C686.688 996.107 682.053 998.433 682.053 998.433L681.784 1012.43C681.784 1012.43 684.312 1023.14 677.485 1019C670.657 1014.87 670.389 1014.37 669.046 1011.89C667.703 1009.42 664.928 999.466 662.532 996.256C660.137 993.046 657.944 986.584 660.787 985.787C663.63 984.991 676.883 982.154 676.223 983.099C675.562 984.044 671.98 987.102 673.838 989.321C675.696 991.54 678.875 994.986 678.875 994.986Z" fill="#2F2E41"/>
<path d="M710.763 799.278C710.763 799.264 710.764 799.25 710.764 799.235C710.764 796.03 709.776 792.897 707.925 790.232C706.075 787.567 703.444 785.49 700.367 784.264C697.289 783.037 693.903 782.716 690.636 783.341C687.369 783.967 684.368 785.51 682.013 787.776C679.657 790.043 678.053 792.93 677.403 796.074C676.754 799.217 677.087 802.476 678.362 805.437C679.637 808.398 681.795 810.929 684.565 812.71C687.335 814.49 690.591 815.441 693.922 815.441C694.313 815.441 695.86 818.26 696.245 818.235C696.268 809.681 702.019 799.852 710.763 799.278Z" fill="#2F2E41"/>
<path d="M675.918 797.559C682.012 797.559 686.953 792.805 686.953 786.942C686.953 781.078 682.012 776.324 675.918 776.324C669.824 776.324 664.884 781.078 664.884 786.942C664.884 792.805 669.824 797.559 675.918 797.559Z" fill="#2F2E41"/>
<path d="M675.412 770.858C678.071 770.842 680.646 771.752 682.663 773.419C684.68 775.087 686.002 777.4 686.385 779.932C686.769 782.463 686.188 785.043 684.75 787.195C683.312 789.347 681.113 790.926 678.56 791.641C680.141 791.639 681.703 791.309 683.14 790.675C684.577 790.041 685.855 789.116 686.888 787.965C687.922 786.814 688.685 785.462 689.128 784.002C689.57 782.541 689.681 781.007 689.453 779.501C689.225 777.996 688.664 776.556 687.806 775.278C686.949 774 685.816 772.914 684.484 772.094C683.153 771.274 681.653 770.74 680.088 770.527C678.523 770.313 676.928 770.427 675.412 770.858V770.858Z" fill="#2F2E41"/>
<path d="M701.472 795.883H707.279C710.052 795.883 712.711 796.942 714.671 798.829C716.632 800.715 717.733 803.273 717.733 805.941V805.941H701.472V795.883Z" fill="#2F2E41"/>
<path d="M914.443 1020.85C914.443 1020.85 914.947 1010.68 925.287 1011.86Z" fill="#3F3D56"/>
<path d="M817.296 1020.85C817.296 1020.85 817.8 1010.68 828.14 1011.86Z" fill="#3F3D56"/>
<path d="M463.039 1020.85C463.039 1020.85 463.543 1010.68 473.883 1011.86Z" fill="#3F3D56"/>
<path d="M958.268 1020.85C958.268 1020.85 958.773 1010.68 969.113 1011.86Z" fill="#3F3D56"/>
<path d="M937.816 1020.85C937.816 1020.85 938.321 1010.68 948.661 1011.86Z" fill="#3F3D56"/>
<path d="M895.627 1020.85C895.627 1020.85 895.123 1010.68 884.783 1011.86Z" fill="#3F3D56"/>
<path d="M727.629 1020.85C727.629 1020.85 727.125 1010.68 716.784 1011.86Z" fill="#3F3D56"/>
<path d="M588.118 1020.85C588.118 1020.85 587.613 1010.68 577.273 1011.86Z" fill="#3F3D56"/>
<path d="M439.841 1020.85C439.841 1020.85 439.336 1010.68 428.996 1011.86Z" fill="#3F3D56"/>
<path d="M1002.27 1020.85C1002.27 1020.85 1001.77 1010.68 991.425 1011.86Z" fill="#3F3D56"/>
<path d="M939.453 1021.55C939.453 1021.55 938.949 1011.38 928.608 1012.56Z" fill="#3F3D56"/>
<path d="M1080.24 1019.52L0.411255 1021.08V1022.64L1080.24 1021.08V1019.52Z" fill="#3F3D56"/>
</g>
<path d="M691.29 456.763L701.671 448.774C693.606 447.918 690.293 452.15 688.936 455.5C682.636 452.982 675.777 456.281 675.777 456.281L696.548 463.537C695.5 460.844 693.676 458.494 691.29 456.763V456.763Z" fill="#3F3D56"/>
<path d="M1011.35 761.879L1037.05 737.706L1076.71 710.989L1134.5 681H1172L1124 701.5L1084 737.706V752.5L1281.99 885.738L1440.42 947.117V966.848V1026.04H1311.58L1205.96 894.889L1011.35 761.879Z" fill="#11B7DC"/>
<path d="M353.983 238.144H346.006V230.252H345.281V238.144H337.304V238.861H345.281V246.752H346.006V238.861H353.983V238.144Z" fill="#8AE9EF"/>
<path d="M225.564 435.14C252.149 442.608 279.252 428.901 286.899 401.679C238.762 388.157 238.762 388.157 252.608 338.866C226.023 331.398 198.272 347.412 190.625 374.634C182.978 401.857 198.979 427.672 225.564 435.14Z" fill="#F9F6FF"/>
<path d="M1069.59 803.361C1069.58 791.946 1066.94 780.676 1061.84 770.367C1056.75 760.057 1049.34 750.967 1040.14 743.754C1030.95 736.542 1020.2 731.387 1008.68 728.665C997.162 725.942 985.156 725.719 973.535 728.013C961.914 730.306 950.969 735.058 941.492 741.924C932.016 748.791 924.245 757.6 918.744 767.712C913.242 777.825 910.148 788.989 909.684 800.395C909.221 811.801 911.4 823.163 916.064 833.658C915.986 833.575 915.905 833.493 915.827 833.409C919.38 841.376 924.305 848.709 930.394 855.098C930.412 855.118 930.431 855.136 930.449 855.156C930.941 855.671 931.435 856.184 931.94 856.686C939.249 864.021 948 869.886 957.684 873.94C967.368 877.995 977.793 880.158 988.353 880.304L985.65 1021.55H994L992.31 928.326L1004.39 922.207L1002.55 918.84L992.233 924.064L991.439 880.297C1012.33 879.836 1032.2 871.528 1046.81 857.15C1061.41 842.772 1069.59 823.466 1069.59 803.361Z" fill="#484AF0"/>
<path d="M1168.16 442.638C1211.46 442.638 1246.57 407.851 1246.57 364.94C1246.57 322.028 1211.46 287.242 1168.16 287.242C1124.86 287.242 1089.75 322.028 1089.75 364.94C1089.75 407.851 1124.86 442.638 1168.16 442.638Z" fill="#F59898"/>
<path d="M1168.16 442.638C1211.46 442.638 1246.57 407.851 1246.57 364.94C1246.57 322.028 1211.46 287.242 1168.16 287.242C1124.86 287.242 1089.75 322.028 1089.75 364.94C1089.75 407.851 1124.86 442.638 1168.16 442.638Z" fill="url(#paint3_radial)"/>
<path d="M216.39 976.564C213.257 981.029 211.794 986.023 212.149 991.037C212.505 996.051 212.643 1001.79 216.39 1005.99C217.619 1007.34 219.783 1010.28 220.686 1010.53C225.019 1011.78 234.686 1012.01 234.686 1012.01L255.581 1005.99C255.581 1005.99 258.973 992.839 262.181 981.549C264.369 973.848 266.483 967.016 267.35 965.818C269.513 962.869 267.35 930.754 267.35 930.754C267.35 930.754 246.455 929.728 240.708 941.531L238.195 945.134L216.39 976.564Z" fill="#A8A8A8"/>
<path d="M249.935 1023.59H289.949C291.595 1023.59 293.224 1023.35 294.737 1022.87C296.25 1022.4 297.615 1021.7 298.749 1020.83C299.883 1019.95 300.763 1018.92 301.334 1017.79C301.906 1016.66 302.158 1015.45 302.075 1014.25C301.19 1001.67 298.947 979.257 293.612 965.026C290.73 957.347 287.38 953.317 284.308 951.331C282.867 950.312 281.006 949.67 279.016 949.507C277.507 949.411 275.996 949.68 274.714 950.272C267.284 955.492 258.606 982.958 258.606 982.958L249.935 1023.59Z" fill="#A8A8A8"/>
<path opacity="0.1" d="M286.877 999.234C288.524 1002.58 289.175 1006.44 286.877 1010.2L277.959 1013.43C277.959 1013.43 253.991 1005.98 256.904 990.727C256.904 990.727 257.691 987.574 265.944 987.818C270.586 987.982 275.056 989.156 278.784 991.189C282.512 993.222 285.329 996.023 286.877 999.234V999.234Z" fill="white"/>
<path d="M239.407 982.733L259.221 1002.59L262.656 1018.99L249.922 1023.59C249.922 1020.62 227.425 1023.71 225.621 1023.59H176.082L182.897 1012.01L206.435 987.8L239.407 982.733Z" fill="#A8A8A8"/>
<path opacity="0.1" d="M231.737 975.915C231.737 975.915 245.258 976.595 240.182 993.618C235.105 1010.64 182.873 1012.01 182.873 1012.01C182.873 1012.01 193.972 997.595 211.045 987.268C212.962 986.111 214.812 984.904 216.576 983.616C220.503 980.738 228.013 975.681 231.737 975.915Z" fill="white"/>
<path opacity="0.1" d="M243.9 988.75C243.9 988.75 262.22 1000.97 260.493 1019.77Z" fill="black"/>
<path opacity="0.1" d="M274.72 950.272C274.72 950.272 255.496 969.007 253.339 997.834Z" fill="black"/>
<path d="M295.546 992.553C295.546 992.553 317.956 991.863 324.706 987.053C331.456 982.243 359.166 976.503 360.846 984.213C362.526 991.923 394.516 1022.56 369.216 1022.77C343.916 1022.98 310.507 1024.32 303.767 1020.21C297.027 1016.1 295.546 992.553 295.546 992.553Z" fill="#A8A8A8"/>
<path opacity="0.2" d="M369.676 1020.08C344.376 1020.29 309.61 1020.33 302.87 1016.27C297.74 1013.14 296.976 997.733 296.296 992.563H295.546C295.546 992.563 296.13 1015.98 302.87 1020.08C309.61 1024.18 343.926 1022.98 369.216 1022.78C376.526 1022.72 379.046 1020.12 378.906 1016.27C377.896 1018.59 375.106 1020.04 369.676 1020.08Z" fill="black"/>
<defs>
<linearGradient id="paint0_linear" x1="720" y1="548.205" x2="720" y2="1028.1" gradientUnits="userSpaceOnUse">
<stop stop-color="#FF4057"/>
<stop offset="1" stop-color="white" stop-opacity="0"/>
</linearGradient>
<linearGradient id="paint1_linear" x1="720" y1="518.243" x2="720" y2="1024" gradientUnits="userSpaceOnUse">
<stop stop-color="#FF4057"/>
<stop offset="1" stop-color="white" stop-opacity="0"/>
</linearGradient>
<linearGradient id="paint2_linear" x1="720" y1="531.539" x2="720" y2="1041.39" gradientUnits="userSpaceOnUse">
<stop stop-color="#FF4057"/>
<stop offset="1" stop-color="white" stop-opacity="0"/>
</linearGradient>
<radialGradient id="paint3_radial" cx="0" cy="0" r="1" gradientUnits="userSpaceOnUse" gradientTransform="translate(1112.18 417.933) rotate(-44.2002) scale(187.46 691.419)">
<stop stop-color="#FFBB00"/>
<stop offset="1" stop-color="white" stop-opacity="0"/>
</radialGradient>
<clipPath id="clip0">
<rect width="1440" height="1024" fill="white"/>
</clipPath>
<clipPath id="clip1">
<rect width="720.472" height="528.677" fill="white" transform="translate(359.764 492.873)"/>
</clipPath>
</defs>
</svg>
