<svg width="1448" height="1024" viewBox="0 0 1448 1024" fill="none" xmlns="http://www.w3.org/2000/svg">
<path d="M8 500.851L123.063 558.289L198.106 648.573L382.639 500.851L544.939 607.516L727.248 580.829L1448 1006.61H8V500.851Z" fill="#484AF0" fill-opacity="0.5"/>
<path d="M8 500.851L123.063 558.289L198.106 648.573L382.639 500.851L544.939 607.516L727.248 580.829L1448 1006.61H8V500.851Z" fill="url(#paint0_linear)" fill-opacity="0.5"/>
<path d="M8 1010.7L977.252 551.255L1152.13 673.432L1327 606.354L1448 530.813V1010.7H8Z" fill="#484AF0" fill-opacity="0.25"/>
<path d="M8 1010.7L977.252 551.255L1152.13 673.432L1327 606.354L1448 530.813V1010.7H8Z" fill="url(#paint1_linear)" fill-opacity="0.25"/>
<path d="M0.930532 1024L0.930496 859.006L391.639 727.187L644.578 651.539L924.721 802.078L1053.67 748.219L1242.65 837.984L1440.93 936.91V1024H0.930532Z" fill="#484AF0" fill-opacity="0.75"/>
<path d="M0.930532 1024L0.930496 859.006L391.639 727.187L644.578 651.539L924.721 802.078L1053.67 748.219L1242.65 837.984L1440.93 936.91V1024H0.930532Z" fill="url(#paint2_linear)" fill-opacity="0.75"/>
<g clip-path="url(#clip0)">
<path d="M1087.97 785.307C1087.97 773.893 1085.32 762.623 1080.23 752.313C1075.14 742.004 1067.72 732.913 1058.53 725.701C1049.34 718.488 1038.59 713.334 1027.07 710.611C1015.55 707.889 1003.54 707.666 991.921 709.959C980.3 712.253 969.354 717.005 959.878 723.871C950.401 730.737 942.631 739.546 937.129 749.659C931.628 759.772 928.533 770.936 928.07 782.341C927.606 793.747 929.786 805.109 934.45 815.605C934.371 815.521 934.291 815.44 934.213 815.356C937.765 823.323 942.69 830.655 948.78 837.045C948.798 837.064 948.817 837.083 948.835 837.102C949.326 837.617 949.82 838.13 950.326 838.632C957.635 845.967 966.385 851.832 976.069 855.887C985.754 859.941 996.178 862.104 1006.74 862.25L1004.04 1003.5H1012.39L1010.7 910.272L1022.77 904.154L1020.93 900.786L1010.62 906.011L1009.82 862.243C1030.71 861.783 1050.59 853.475 1065.19 839.096C1079.8 824.718 1087.97 805.412 1087.97 785.307Z" fill="#484AF0"/>
<path d="M850.583 747.798C850.576 734.421 847.476 721.214 841.508 709.132C835.541 697.05 826.855 686.397 816.079 677.945C805.304 669.492 792.71 663.452 779.209 660.261C765.708 657.07 751.638 656.809 738.019 659.497C724.4 662.184 711.573 667.753 700.468 675.8C689.362 683.847 680.256 694.17 673.809 706.022C667.361 717.873 663.735 730.956 663.192 744.322C662.649 757.689 665.202 771.005 670.668 783.304C670.576 783.206 670.482 783.111 670.391 783.012C674.554 792.349 680.325 800.942 687.462 808.43C687.483 808.453 687.505 808.475 687.526 808.497C688.102 809.101 688.681 809.702 689.274 810.29C697.839 818.887 708.094 825.76 719.443 830.511C730.792 835.263 743.009 837.798 755.384 837.969L752.217 1003.5H762.002L760.021 894.246L774.176 887.076L772.017 883.13L759.931 889.252L759.001 837.96C783.481 837.42 806.77 827.684 823.885 810.834C841 793.985 850.583 771.359 850.583 747.798Z" fill="#9E9FF4"/>
<path d="M581.357 712.517C581.348 697.294 577.821 682.264 571.03 668.516C564.239 654.767 554.354 642.644 542.092 633.025C529.83 623.406 515.498 616.532 500.134 612.901C484.77 609.27 468.759 608.973 453.261 612.032C437.763 615.09 423.167 621.428 410.528 630.585C397.89 639.742 387.528 651.489 380.191 664.976C372.854 678.463 368.727 693.351 368.109 708.562C367.491 723.773 370.397 738.925 376.617 752.922C376.513 752.81 376.405 752.702 376.301 752.59C381.039 763.215 387.607 772.994 395.728 781.515C395.752 781.541 395.777 781.566 395.801 781.591C396.457 782.278 397.116 782.962 397.79 783.632C407.537 793.414 419.207 801.236 432.122 806.643C445.037 812.05 458.939 814.934 473.022 815.129L469.418 1003.5H480.553L478.299 879.172L494.407 871.012L491.95 866.521L478.196 873.488L477.138 815.12C504.996 814.505 531.498 803.426 550.975 784.251C570.452 765.076 581.357 739.329 581.357 712.517Z" fill="#9E9FF4"/>
<path d="M566.996 756.632C644.208 756.632 706.8 696.406 706.8 622.113C706.8 547.82 644.208 487.594 566.996 487.594C489.784 487.594 427.192 547.82 427.192 622.113C427.192 696.406 489.784 756.632 566.996 756.632Z" fill="#484AF0"/>
<path opacity="0.2" d="M463.769 532.265C450.729 561.616 448.96 594.473 458.778 624.963C468.597 655.454 489.364 681.592 517.367 698.706C545.37 715.82 578.786 722.796 611.643 718.387C644.499 713.977 674.656 698.47 696.724 674.636C688.758 692.568 676.835 708.62 661.782 721.678C646.728 734.737 628.904 744.49 609.545 750.262C590.185 756.035 569.752 757.688 549.662 755.108C529.573 752.528 510.306 745.776 493.197 735.32C476.089 724.864 461.547 710.954 450.581 694.554C439.614 678.154 432.484 659.655 429.684 640.34C426.885 621.025 428.484 601.356 434.369 582.694C440.255 564.033 450.286 546.826 463.769 532.265Z" fill="black"/>
<path d="M567.38 622.113H567.765L574.678 1003.5H560.083L567.38 622.113Z" fill="#3F3D56"/>
<path d="M592.836 829.851L589.615 823.965L566.505 835.672L569.726 841.558L592.836 829.851Z" fill="#3F3D56"/>
<path d="M780.831 999.929C780.831 999.929 781.335 989.76 791.675 990.942Z" fill="#3F3D56"/>
<path d="M777.909 990.252C780.767 990.252 783.084 988.022 783.084 985.272C783.084 982.522 780.767 980.292 777.909 980.292C775.051 980.292 772.734 982.522 772.734 985.272C772.734 988.022 775.051 990.252 777.909 990.252Z" fill="#6C63FF"/>
<path d="M778.528 993.658H777.067V1003.5H778.528V993.658Z" fill="#3F3D56"/>
<path d="M422.191 998.524C422.191 998.524 422.695 988.354 433.036 989.536Z" fill="#3F3D56"/>
<path d="M419.269 988.846C422.127 988.846 424.445 986.617 424.445 983.867C424.445 981.116 422.127 978.887 419.269 978.887C416.411 978.887 414.094 981.116 414.094 983.867C414.094 986.617 416.411 988.846 419.269 988.846Z" fill="#6C63FF"/>
<path d="M419.888 992.252H418.427V1002.09H419.888V992.252Z" fill="#3F3D56"/>
<path d="M506.92 999.227C506.92 999.227 507.425 989.057 517.765 990.239Z" fill="#3F3D56"/>
<path d="M503.999 989.549C506.857 989.549 509.174 987.319 509.174 984.569C509.174 981.819 506.857 979.59 503.999 979.59C501.141 979.59 498.823 981.819 498.823 984.569C498.823 987.319 501.141 989.549 503.999 989.549Z" fill="#6C63FF"/>
<path d="M504.618 992.955H503.157V1002.79H504.618V992.955Z" fill="#3F3D56"/>
<path d="M922.443 1003.62C922.443 1003.62 922.947 993.451 933.287 994.633Z" fill="#3F3D56"/>
<path d="M825.296 1003.62C825.296 1003.62 825.8 993.451 836.14 994.633Z" fill="#3F3D56"/>
<path d="M471.039 1003.62C471.039 1003.62 471.543 993.451 481.883 994.633Z" fill="#3F3D56"/>
<path d="M966.268 1003.62C966.268 1003.62 966.772 993.451 977.113 994.633Z" fill="#3F3D56"/>
<path d="M945.816 1003.62C945.816 1003.62 946.321 993.451 956.661 994.633Z" fill="#3F3D56"/>
<path d="M903.627 1003.62C903.627 1003.62 903.123 993.451 892.782 994.633Z" fill="#3F3D56"/>
<path d="M735.629 1003.62C735.629 1003.62 735.125 993.451 724.784 994.633Z" fill="#3F3D56"/>
<path d="M596.117 1003.62C596.117 1003.62 595.613 993.451 585.273 994.633Z" fill="#3F3D56"/>
<path d="M447.841 1003.62C447.841 1003.62 447.336 993.451 436.996 994.633Z" fill="#3F3D56"/>
<path d="M1010.27 1003.62C1010.27 1003.62 1009.77 993.451 999.425 994.633Z" fill="#3F3D56"/>
<path d="M947.453 1004.32C947.453 1004.32 946.948 994.154 936.608 995.336Z" fill="#3F3D56"/>
<path d="M1088.24 1002.29H367.764V1003.85H1088.24V1002.29Z" fill="#3F3D56"/>
</g>
<path d="M391.622 302.007L402.003 294.018C393.939 293.162 390.625 297.394 389.269 300.743C382.969 298.226 376.11 301.525 376.11 301.525L396.88 308.78C395.833 306.087 394.009 303.738 391.622 302.007V302.007Z" fill="#3F3D56"/>
<path d="M206.419 246.62L216.8 238.631C208.736 237.775 205.422 242.007 204.066 245.357C197.766 242.84 190.907 246.139 190.907 246.139L211.678 253.394C210.63 250.701 208.806 248.351 206.419 246.62V246.62Z" fill="#3F3D56"/>
<path d="M286.394 379.705L296.775 371.716C288.71 370.86 285.397 375.092 284.041 378.441C277.74 375.924 270.882 379.223 270.882 379.223L291.652 386.478C290.604 383.785 288.78 381.436 286.394 379.705Z" fill="#3F3D56"/>
<path d="M1166.38 297.573C1209.69 297.573 1244.79 262.786 1244.79 219.875C1244.79 176.963 1209.69 142.177 1166.38 142.177C1123.08 142.177 1087.97 176.963 1087.97 219.875C1087.97 262.786 1123.08 297.573 1166.38 297.573Z" fill="#FF6584"/>
<path d="M1166.38 297.573C1209.69 297.573 1244.79 262.786 1244.79 219.875C1244.79 176.963 1209.69 142.177 1166.38 142.177C1123.08 142.177 1087.97 176.963 1087.97 219.875C1087.97 262.786 1123.08 297.573 1166.38 297.573Z" fill="url(#paint3_radial)"/>
<defs>
<linearGradient id="paint0_linear" x1="728" y1="500.851" x2="728" y2="1006.61" gradientUnits="userSpaceOnUse">
<stop stop-color="#FF4057"/>
<stop offset="1" stop-color="white" stop-opacity="0"/>
</linearGradient>
<linearGradient id="paint1_linear" x1="728" y1="530.813" x2="728" y2="1010.7" gradientUnits="userSpaceOnUse">
<stop stop-color="#FF4057"/>
<stop offset="1" stop-color="white" stop-opacity="0"/>
</linearGradient>
<linearGradient id="paint2_linear" x1="720.93" y1="514.147" x2="720.93" y2="1024" gradientUnits="userSpaceOnUse">
<stop stop-color="#FF4057"/>
<stop offset="1" stop-color="white" stop-opacity="0"/>
</linearGradient>
<radialGradient id="paint3_radial" cx="0" cy="0" r="1" gradientUnits="userSpaceOnUse" gradientTransform="translate(1110.4 272.868) rotate(-44.2002) scale(187.46 691.419)">
<stop stop-color="#FFBB00"/>
<stop offset="1" stop-color="white" stop-opacity="0"/>
</radialGradient>
<clipPath id="clip0">
<rect width="720.472" height="528.677" fill="white" transform="translate(367.764 475.646)"/>
</clipPath>
</defs>
</svg>
